<svg width="16" height="16" viewBox="0 0 16 16" fill="none" xmlns="http://www.w3.org/2000/svg">
<path d="M16 5.60292C15.9991 4.15452 15.3761 2.85282 14.4373 1.93164C13.6044 1.10813 12.4672 0.651841 11.2857 0.66712C9.68626 0.66712 8.28643 2.06583 8.00016 2.88647C7.71389 2.06583 6.31406 0.66712 4.712 0.66712C3.53082 0.653321 2.39415 1.10939 1.56041 1.93164C0.622518 2.85321 0 4.15563 0 5.60347C0 7.03825 0.611343 8.61584 2.13294 10.1071C3.45924 11.4181 7.35409 14.7936 7.51954 14.9355L8.01067 15.3613L8.48078 14.9355C8.64624 14.7936 12.5542 11.4078 13.8674 10.1174C15.3875 8.62246 15.9992 7.04388 16 5.6089V5.60292Z" fill="#DC0069"/>
</svg>
